<svg xmlns="http://www.w3.org/2000/svg" class="simple-mind-map" style="height:200px" data-block-config="{&quot;name&quot;:null,&quot;body&quot;:&quot;\n```markdown\n* simplemindmap\n * config book.json\n * plugins\n * others\n * simple-mind-map\n * pluginsConfig\n * others\n * simple-mind-map\n * type\n * preset\n * linkShape\n * autoFit\n * style\n * custom file.md\n * markdown\n * type\n * preset\n * linkShape\n * autoFit\n * style\n * txtmap\n * json\n * mindmup\n```\n&quot;,&quot;args&quot;:[],&quot;kwargs&quot;:{&quot;style&quot;:{&quot;height&quot;:&quot;200px&quot;},&quot;__keywords&quot;:true},&quot;blocks&quot;:[]}" data-lang-type="markdown" data-plugin-config="{&quot;autoFit&quot;:true,&quot;linkShape&quot;:&quot;diagonal&quot;,&quot;preset&quot;:&quot;colorful&quot;,&quot;style&quot;:{},&quot;type&quot;:&quot;markdown&quot;}" data-svg-text="&quot;* simplemindmap\n * config book.json\n * plugins\n * others\n * simple-mind-map\n * pluginsConfig\n * others\n * simple-mind-map\n * type\n * preset\n * linkShape\n * autoFit\n * style\n * custom file.md\n * markdown\n * type\n * preset\n * linkShape\n * autoFit\n * style\n * txtmap\n * json\n * mindmup\n&quot;"><path stroke="#1f77b4" stroke-width="1.5" d="M408.715 135c30 0 30-30 60-30m-60 30c30 0 30-15 60-15m-60 15h60m-60 0c30 0 30 15 60 15m-60-15c30 0 30 30 60 30m-179.94-7.5c30 0 30-22.5 60-22.5m-60 22.5c30 0 30-7.5 60-7.5m-60 7.5c30 0 30 7.5 60 7.5m-60-7.5c30 0 30 22.5 60 22.5" class="markmap-link"/><path stroke="#aec7e8" stroke-width="1.5" d="M589.475 85c30 0 30-30 60-30m-60 30c30 0 30-15 60-15m-60 15h60m-60 0c30 0 30 15 60 15m-60-15c30 0 30 30 60 30m-216.58-45c30 0 30-15 60-15m-60 15c30 0 30 15 60 15m-90.72-57.5c30 0 30-7.5 60-7.5m-60 7.5c30 0 30 7.5 60 7.5m-164.92 13.75c30 0 30-21.25 60-21.25m-60 21.25c30 0 30 21.25 60 21.25" class="markmap-link"/><path stroke="#aec7e8" stroke-width="2" d="M148.335 103.125c30 0 30-54.375 60-54.375" class="markmap-link"/><path stroke="#1f77b4" stroke-width="2" d="M148.335 103.125c30 0 30 54.375 60 54.375" class="markmap-link"/><g class="markmap-node" transform="translate(348.775 180)"><rect width="56.57" height="1.5" x="-1" y="-.75" fill="#1f77b4" class="markmap-node-rect"/><text x="10" class="markmap-node-text" dy="-5">mindmup</text></g><g class="markmap-node" transform="translate(348.775 165)"><rect width="33.17" height="1.5" x="-1" y="-.75" fill="#1f77b4" class="markmap-node-rect"/><text x="10" class="markmap-node-text" dy="-5">json</text></g><g class="markmap-node" transform="translate(348.775 150)"><rect width="46.19" height="1.5" x="-1" y="-.75" fill="#1f77b4" class="markmap-node-rect"/><text x="10" class="markmap-node-text" dy="-5">txtmap</text></g><g class="markmap-node" transform="translate(468.715 165)"><rect width="35.46" height="1.5" x="-1" y="-.75" fill="#1f77b4" class="markmap-node-rect"/><text x="10" class="markmap-node-text" dy="-5">style</text></g><g class="markmap-node" transform="translate(468.715 150)"><rect width="46.48" height="1.5" x="-1" y="-.75" fill="#1f77b4" class="markmap-node-rect"/><text x="10" class="markmap-node-text" dy="-5">autoFit</text></g><g class="markmap-node" transform="translate(468.715 135)"><rect width="58.67" height="1.5" x="-1" y="-.75" fill="#1f77b4" class="markmap-node-rect"/><text x="10" class="markmap-node-text" dy="-5">linkShape</text></g><g class="markmap-node" transform="translate(468.715 120)"><rect width="43.21" height="1.5" x="-1" y="-.75" fill="#1f77b4" class="markmap-node-rect"/><text x="10" class="markmap-node-text" dy="-5">preset</text></g><g class="markmap-node" transform="translate(468.715 105)"><rect width="33.92" height="1.5" x="-1" y="-.75" fill="#1f77b4" class="markmap-node-rect"/><text x="10" class="markmap-node-text" dy="-5">type</text></g><g class="markmap-node" transform="translate(348.775 135)"><rect width="61.94" height="1.5" x="-1" y="-.75" fill="#1f77b4" class="markmap-node-rect"/><circle cx="59.94" r="4.5" stroke="#1f77b4" class="markmap-node-circle"/><text x="10" class="markmap-node-text" dy="-5">markdown</text></g><g class="markmap-node" transform="translate(208.335 157.5)"><rect width="82.44" height="2" x="-1" y="-1" fill="#1f77b4" class="markmap-node-rect"/><circle cx="80.44" r="4.5" stroke="#1f77b4" class="markmap-node-circle"/><text x="10" class="markmap-node-text" dy="-5">custom file.md</text></g><g class="markmap-node" transform="translate(649.475 115)"><rect width="35.46" height="1.5" x="-1" y="-.75" fill="#aec7e8" class="markmap-node-rect"/><text x="10" class="markmap-node-text" dy="-5">style</text></g><g class="markmap-node" transform="translate(649.475 100)"><rect width="46.48" height="1.5" x="-1" y="-.75" fill="#aec7e8" class="markmap-node-rect"/><text x="10" class="markmap-node-text" dy="-5">autoFit</text></g><g class="markmap-node" transform="translate(649.475 85)"><rect width="58.67" height="1.5" x="-1" y="-.75" fill="#aec7e8" class="markmap-node-rect"/><text x="10" class="markmap-node-text" dy="-5">linkShape</text></g><g class="markmap-node" transform="translate(649.475 70)"><rect width="43.21" height="1.5" x="-1" y="-.75" fill="#aec7e8" class="markmap-node-rect"/><text x="10" class="markmap-node-text" dy="-5">preset</text></g><g class="markmap-node" transform="translate(649.475 55)"><rect width="33.92" height="1.5" x="-1" y="-.75" fill="#aec7e8" class="markmap-node-rect"/><text x="10" class="markmap-node-text" dy="-5">type</text></g><g class="markmap-node" transform="translate(492.895 85)"><rect width="98.58" height="1.5" x="-1" y="-.75" fill="#aec7e8" class="markmap-node-rect"/><circle cx="96.58" r="4.5" stroke="#aec7e8" class="markmap-node-circle"/><text x="10" class="markmap-node-text" dy="-5">simple-mind-map</text></g><g class="markmap-node" transform="translate(492.895 55)"><rect width="43.22" height="1.5" x="-1" y="-.75" fill="#aec7e8" class="markmap-node-rect"/><text x="10" class="markmap-node-text" dy="-5">others</text></g><g class="markmap-node" transform="translate(357.255 70)"><rect width="77.64" height="1.5" x="-1" y="-.75" fill="#aec7e8" class="markmap-node-rect"/><circle cx="75.64" r="4.5" stroke="#aec7e8" class="markmap-node-circle"/><text x="10" class="markmap-node-text" dy="-5">pluginsConfig</text></g><g class="markmap-node" transform="translate(462.175 35)"><rect width="98.58" height="1.5" x="-1" y="-.75" fill="#aec7e8" class="markmap-node-rect"/><text x="10" class="markmap-node-text" dy="-5">simple-mind-map</text></g><g class="markmap-node" transform="translate(462.175 20)"><rect width="43.22" height="1.5" x="-1" y="-.75" fill="#aec7e8" class="markmap-node-rect"/><text x="10" class="markmap-node-text" dy="-5">others</text></g><g class="markmap-node" transform="translate(357.255 27.5)"><rect width="46.92" height="1.5" x="-1" y="-.75" fill="#aec7e8" class="markmap-node-rect"/><circle cx="44.92" r="4.5" stroke="#aec7e8" class="markmap-node-circle"/><text x="10" class="markmap-node-text" dy="-5">plugins</text></g><g class="markmap-node" transform="translate(208.335 48.75)"><rect width="90.92" height="2" x="-1" y="-1" fill="#aec7e8" class="markmap-node-rect"/><circle cx="88.92" r="4.5" stroke="#aec7e8" class="markmap-node-circle"/><text x="10" class="markmap-node-text" dy="-5">config book.json</text></g><g class="markmap-node" transform="translate(63.855 103.125)"><rect width="86.48" height="6" x="-1" y="-3" fill="#ff7f0e" class="markmap-node-rect"/><circle cx="84.48" r="4.5" stroke="#ff7f0e" class="markmap-node-circle"/><text x="10" class="markmap-node-text" dy="-5">simplemindmap</text></g></svg>